<svg height="512" viewBox="0 0 64 64" width="512" xmlns="http://www.w3.org/2000/svg"><g id="Filled_outline" data-name="Filled outline"><path d="m49 15c-2 10-10 10-10 10a41.247 41.247 0 0 1 5.429-14.97c-3.315 1.758-7.286.576-11.429 4.97-6 5-9.615 5.121-14 7-7 3-12 7-15 15a25.264 25.264 0 0 0 -1 7c0 9.941 8.059 17 18 17 8.458 0 16-5.3 18-14 1-5 1.051-8.093 8-14 20-17 9.029-17.7 14-30 0 0-10 2-12 12z" fill="#fcf05a"/><path d="m31.306 35.1a15.785 15.785 0 0 0 -.306-3.1l-4-3-6 1a4.373 4.373 0 0 1 -3 4l-5-1a12.656 12.656 0 0 0 -3.492 16.07c1.492-.07 4.492.93 4.492 2.93l3 1c1.813.96 1.806 3 4 3a12.984 12.984 0 0 0 10.306-20.9z" fill="#d3843d"/><ellipse cx="25.494" cy="36.501" fill="#66342e" rx="2.121" ry="3.536" transform="matrix(.707 -.707 .707 .707 -18.343 28.718)"/><g fill="#d3843d"><path d="m19 9-3 4 4 3 4-2 1-4z"/><path d="m32 5-2 3 3 1 3-2z"/><path d="m53 33-3 3 4 3 4-2-1-4z"/></g><ellipse cx="14" cy="43" fill="#66342e" rx="2" ry="3"/><path d="m23 47c-1.172 1.171-1.781 3.219-1 4s2.828.171 4-1 1.781-3.219 1-4-2.828-.172-4 1z" fill="#66342e"/><path d="m3.063 36.648a26.361 26.361 0 0 0 -1.063 7.352c0 10.262 8.168 18 19 18a18.989 18.989 0 0 0 18.98-14.8c.085-.425.164-.837.24-1.237.8-4.226 1.334-7.017 7.427-12.2 13.533-11.503 13.271-15.972 12.968-21.146a18.722 18.722 0 0 1 1.312-9.242 1 1 0 0 0 -1.127-1.355c-.1.021-10.674 2.252-12.78 12.78-1.375 6.875-5.716 8.61-7.838 9.049a41.392 41.392 0 0 1 5.091-13.287 1 1 0 0 0 -1.313-1.42 12.662 12.662 0 0 1 -3.5 1.049c-2.473.494-5.273 1.055-8.144 4.075a27.311 27.311 0 0 1 -10.2 5.518c-1.127.379-2.292.772-3.508 1.293-8.108 3.478-12.754 8.133-15.545 15.571zm16.331-13.729c1.143-.489 2.219-.852 3.358-1.235a29.391 29.391 0 0 0 10.889-5.915c.03-.027.059-.054.087-.083 2.446-2.6 4.824-3.07 7.123-3.53.464-.093.934-.187 1.4-.3a40.552 40.552 0 0 0 -4.236 12.95 16.036 16.036 0 0 1 -3.724 7.494l1.416 1.412a17.715 17.715 0 0 0 4.107-7.782c2.233-.318 8.418-1.984 10.166-10.729a14.36 14.36 0 0 1 9.42-10.675 21 21 0 0 0 -.776 8.208c.282 4.831.506 8.648-12.266 19.5-6.632 5.637-7.247 8.871-8.1 13.347-.074.394-.151.8-.23 1.191a17.015 17.015 0 0 1 -17.028 13.228c-9.691 0-17-6.879-17-16a24.473 24.473 0 0 1 .937-6.648c2.613-6.971 6.801-11.152 14.457-14.433z"/><path d="m9.555 50.069a4.812 4.812 0 0 1 3.014 1.076 1.178 1.178 0 0 1 .431.855 1 1 0 0 0 .684.948l2.915.972a4.065 4.065 0 0 1 1.2 1.206 3.716 3.716 0 0 0 3.201 1.874 14.015 14.015 0 0 0 14-14 13.845 13.845 0 0 0 -2.641-8.162 19.773 19.773 0 0 0 -.373-3 1 1 0 0 0 -.386-.638l-4-3a1.011 1.011 0 0 0 -.764-.186l-6 1a1.008 1.008 0 0 0 -.836.978 3.372 3.372 0 0 1 -2.08 2.972l-4.72-.944a1 1 0 0 0 -.824.2 13.656 13.656 0 0 0 -3.752 17.318.984.984 0 0 0 .931.531zm3.717-16 2.339.468-2.211 1.663 1.2 1.6 3.154-2.365 1.414 2.12 1.664-1.11-1.364-2.045a5.393 5.393 0 0 0 2.439-3.537l4.835-.8 3.335 2.5c.141.9.267 1.868.277 2.235a1 1 0 0 0 .159.914 11.877 11.877 0 0 1 2.487 7.288c0 .188-.02.372-.028.558l-1.1-1.1-.926-2.776-1.9.632.725 2.177-1.224.612.894 1.79 1.356-.678 1.8 1.8a12.009 12.009 0 0 1 -11.597 8.985c-.759 0-1.023-.312-1.6-1.079a5.778 5.778 0 0 0 -1.929-1.8.96.96 0 0 0 -.152-.064l-2.419-.811a3.315 3.315 0 0 0 -.952-1.549 6.745 6.745 0 0 0 -3.813-1.607 11.624 11.624 0 0 1 3.136-14.016z"/><path d="m13.758 46.968 4 1 .484-1.94-1.93-.482a5.062 5.062 0 0 0 0-5.1l1.93-.482-.484-1.94-4 1c-1.558.17-2.758 1.844-2.758 3.976s1.2 3.806 2.758 3.968zm.242-5.968c.408 0 1 .779 1 2s-.592 2-1 2-1-.779-1-2 .592-2 1-2z"/><path d="m26.964 40.349a2.387 2.387 0 0 0 1.737-.641c1.264-1.263.514-3.9-1-5.414s-4.149-2.265-5.414-1-.514 3.9 1 5.414a5.574 5.574 0 0 0 3.677 1.641zm-3.264-5.64a.493.493 0 0 1 .3-.067 3.66 3.66 0 0 1 2.289 1.066 3.021 3.021 0 0 1 1 2.585 3.427 3.427 0 0 1 -3.589-3.584z"/><path d="m23.03 52.348a5.57 5.57 0 0 0 3.677-1.641c1.457-1.457 2.187-3.944 1.114-5.255l.011-.007-2-3-1.664 1.11.819 1.228a5.882 5.882 0 0 0 -2.694 1.51 5.722 5.722 0 0 0 -1.6 3.219l-1.381-.46-.632 1.9 2.852.951a2.5 2.5 0 0 0 1.498.445zm.677-4.641a3.665 3.665 0 0 1 2.293-1.067.492.492 0 0 1 .3.066 3.012 3.012 0 0 1 -1 2.587 3.021 3.021 0 0 1 -2.585 1 3.012 3.012 0 0 1 .992-2.586z"/><path d="m19 42h2v2h-2z"/><path d="m21 40h2v2h-2z"/><path d="m25.274 24.962c7.214-2.062 12.282-8.062 12.495-8.321l-1.537-1.282c-.048.058-4.9 5.791-11.545 7.691-10.128 3.334-12.291 6.071-12.5 6.372l1.613 1.178c.022-.029 2.053-2.537 11.474-5.638z"/><path d="m48.6 27.8c4.168-3.125 7.4-8.372 7.4-10.8h-2c0 1.459-2.57 6.178-6.573 9.181-10.211 7.147-11.364 12.403-11.407 12.619l1.959.4c.01-.04 1.162-4.778 10.621-11.4z"/><path d="m52 13h2v2h-2z"/><path d="m30.4 27.2 1.2 1.6c.173-.13 4.262-3.225 5.348-6.484l-1.9-.632c-.885 2.664-4.611 5.488-4.648 5.516z"/><path d="m55 10h2v2h-2z"/><path d="m18.2 8.4-3 4a1 1 0 0 0 .2 1.4l4 3a1 1 0 0 0 .6.2 1.008 1.008 0 0 0 .447-.105l4-2a1 1 0 0 0 .523-.653l1-4a1 1 0 0 0 -.806-1.228l-6-1a1.007 1.007 0 0 0 -.964.386zm5.568 2.409-.435 1.739-2.886-1.443-.894 1.79 2.211 1.105-1.659.829-2.705-2.029 2.036-2.714z"/><path d="m29.684 8.948 3 1a.983.983 0 0 0 .316.052 1 1 0 0 0 .555-.168l3-2a1 1 0 0 0 -.108-1.727l-4-2a1 1 0 0 0 -1.279.34l-2 3a1 1 0 0 0 .516 1.5zm2.659-2.659 1.669.835-1.159.776-1.294-.43z"/><path d="m57 32h-4a1 1 0 0 0 -.707.293l-3 3a1 1 0 0 0 .107 1.507l4 3a1 1 0 0 0 .6.2 1.008 1.008 0 0 0 .447-.1l4-2a1 1 0 0 0 .523-1.137l-1-4a1 1 0 0 0 -.97-.763zm-2.9 5.829-2.583-1.937 1.323-1.322 1.323 1.985 1.664-1.11-.959-1.445h1.351l.616 2.464z"/><path d="m46 38h2v2h-2z"/><path d="m57 27h2v2h-2z"/><path d="m39 3h2v2h-2z"/><path d="m23 4h2v2h-2z"/><path d="m47 5h2v2h-2z"/></g></svg>