<svg height="512" viewBox="0 0 64 64" width="512" xmlns="http://www.w3.org/2000/svg"><g id="Filled_outline" data-name="Filled outline"><g fill="#32b1cc"><path d="m36 17h-8v-7c0-2 4-7 4-7s4 5 4 7z"/><path d="m28 17h8v12h-8z"/><path d="m20 34-13 10v10h7l6-5z"/></g><path d="m3 42h4v12h-4z" fill="#cdeef6"/><path d="m20 34-13 10v5l13-10z" fill="#7fcac9"/><path d="m20 31h4v18h-4z" fill="#cdeef6"/><path d="m20 31v-3l2-3 2 3v3z" fill="#2d75bb"/><path d="m3 42v-3l2-3 2 3v3z" fill="#2d75bb"/><path d="m32 61-12-4v-4l12 4z" fill="#32b1cc"/><path d="m44 34 13 10v10h-7l-6-5z" fill="#32b1cc"/><path d="m57 42h4v12h-4z" fill="#cdeef6" transform="matrix(-1 0 0 -1 118 96)"/><path d="m44 34 13 10v5l-13-10z" fill="#7fcac9"/><path d="m40 31h4v18h-4z" fill="#cdeef6" transform="matrix(-1 0 0 -1 84 80)"/><path d="m44 31v-3l-2-3-2 3v3z" fill="#2d75bb"/><path d="m61 42v-3l-2-3-2 3v3z" fill="#2d75bb"/><path d="m32 61 12-4v-4l-12 4z" fill="#25a6b7"/><path d="m40 49v-18l-4-2h-8l-4 2v18h-4v4l12 4 12-4v-4z" fill="#7fcac9"/><path d="m3 54h4a0 0 0 0 1 0 0v2a2 2 0 0 1 -2 2 2 2 0 0 1 -2-2v-2a0 0 0 0 1 0 0z" fill="#2d75bb"/><path d="m57 54h4a0 0 0 0 1 0 0v2a2 2 0 0 1 -2 2 2 2 0 0 1 -2-2v-2a0 0 0 0 1 0 0z" fill="#2d75bb"/><path d="m36 52-3 1h-2l-3-1v-15a4 4 0 0 1 4-4 4 4 0 0 1 4 4z" fill="#2d75bb"/><path d="m31 37h2v2h-2z" fill="#f4f4e6"/><path d="m31 41h2v2h-2z" fill="#f4f4e6"/><path d="m31 45h2v2h-2z" fill="#f4f4e6"/><path d="m20 49-6 5v5l6 2z" fill="#2d75bb"/><path d="m44 49 6 5v5l-6 2z" fill="#2d75bb"/><path d="m28 17h8v4h-8z" fill="#7fcac9"/><path d="m59.832 35.445a1.039 1.039 0 0 0 -1.664 0l-2 3a1.006 1.006 0 0 0 -.168.555v2.969l-11-8.461v-5.508a1.006 1.006 0 0 0 -.168-.555l-2-3a1.039 1.039 0 0 0 -1.664 0l-2 3a1.006 1.006 0 0 0 -.168.555v1.382l-2-1v-18.382c0-2.237-3.515-6.744-4.219-7.625a1.034 1.034 0 0 0 -1.562 0c-.704.881-4.219 5.388-4.219 7.625v18.382l-2 1v-1.382a1.006 1.006 0 0 0 -.168-.555l-2-3a1.039 1.039 0 0 0 -1.664 0l-2 3a1.006 1.006 0 0 0 -.168.555v5.508l-11 8.461v-2.969a1.006 1.006 0 0 0 -.168-.555l-2-3a1.039 1.039 0 0 0 -1.664 0l-2 3a1.006 1.006 0 0 0 -.168.555v17a3 3 0 0 0 6 0v-1h5v4a1 1 0 0 0 .684.948l6 2a.983.983 0 0 0 .316.052 1 1 0 0 0 1-1v-2.613l10.684 3.561a.983.983 0 0 0 .316.052 1 1 0 0 0 .316-.053l10.684-3.56v2.613a1 1 0 0 0 1 1 .983.983 0 0 0 .316-.052l6-2a1 1 0 0 0 .684-.948v-4h5v1a3 3 0 0 0 6 0v-17a1.006 1.006 0 0 0 -.168-.555zm-53.832 20.555a1 1 0 0 1 -2 0v-1h2zm0-3h-2v-10h2zm0-12h-2v-1.7l1-1.5 1 1.5zm13 18.612-4-1.333v-3.81l4-3.333zm0-11.081-5.363 4.469h-5.637v-3.508l11-8.461zm0-10.023-11 8.461v-2.477l11-8.461zm10-28.508c0-.872 1.442-3.264 3-5.361 1.558 2.1 3 4.489 3 5.361v6h-6zm0 8h6v2h-6zm0 4h6v6h-6zm-8 6.3 1-1.5 1 1.5v1.7h-2zm0 3.7h2v16h-2zm10 27.612-10-3.333v-1.891l10 3.333zm12-3.333-10 3.334v-1.893l10-3.332zm0-4-11 3.667-11-3.666v-2.28h3a1 1 0 0 0 1-1v-17.382l3.236-1.618h7.528l3.236 1.618v17.382a1 1 0 0 0 1 1h3zm0-4.279h-2v-16h2zm0-18h-2v-1.7l1-1.5 1 1.5zm6 28.279-4 1.333v-8.476l4 3.333zm7-5.279h-5.637l-5.363-4.469v-7.5l11 8.461zm0-6.031-11-8.461v-2.477l11 8.461zm4 9.031a1 1 0 0 1 -2 0v-1h2zm0-3h-2v-10h2zm0-12h-2v-1.7l1-1.5 1 1.5z"/><path d="m32 32a5.006 5.006 0 0 0 -5 5v15a1 1 0 0 0 .684.948l3 1a1 1 0 0 0 .316.052h2a1 1 0 0 0 .316-.052l3-1a1 1 0 0 0 .684-.948v-15a5.006 5.006 0 0 0 -5-5zm3 19.279-2.162.721h-1.676l-2.162-.721v-14.279a3 3 0 0 1 6 0z"/><path d="m31 37h2v2h-2z"/><path d="m31 41h2v2h-2z"/><path d="m31 45h2v2h-2z"/></g></svg>